<?xml version="1.0" standalone="no"?>
<!DOCTYPE svg PUBLIC "-//W3C//DTD SVG 20010904//EN"
 "http://www.w3.org/TR/2001/REC-SVG-20010904/DTD/svg10.dtd">
<svg version="1.0" xmlns="http://www.w3.org/2000/svg"
 width="512.000000pt" height="512.000000pt" viewBox="0 0 512.000000 512.000000"
 preserveAspectRatio="xMidYMid meet">
<metadata>
Created by potrace 1.11, written by Peter Selinger 2001-2013
</metadata>
<g transform="translate(0.000000,512.000000) scale(0.100000,-0.100000)"
fill="#000000" stroke="none">
<path d="M2320 5110 c-502 -52 -982 -248 -1365 -557 -288 -232 -517 -518 -684
-854 -124 -249 -204 -502 -247 -784 -26 -169 -26 -541 0 -710 71 -465 260
-899 543 -1250 232 -288 518 -517 854 -684 249 -124 502 -204 784 -247 169
-26 541 -26 710 0 465 71 899 260 1250 543 288 232 517 518 684 854 124 249
204 502 247 784 26 169 26 541 0 710 -71 465 -260 899 -543 1250 -232 288
-518 517 -854 684 -246 123 -506 205 -779 246 -124 19 -478 28 -600 15z m-113
-1875 c191 -371 351 -675 354 -675 3 0 160 297 349 660 188 363 348 667 354
675 9 13 40 15 208 13 l198 -3 -465 -845 -465 -845 0 -502 0 -503 -180 0 -180
0 0 505 0 504 -460 836 c-253 460 -460 841 -460 846 0 5 85 9 199 9 l199 0
349 -675z"/>
</g>
</svg>
