<?xml version="1.0" standalone="no"?>
<!DOCTYPE svg PUBLIC "-//W3C//DTD SVG 20010904//EN"
 "http://www.w3.org/TR/2001/REC-SVG-20010904/DTD/svg10.dtd">
<svg version="1.0" xmlns="http://www.w3.org/2000/svg"
 width="512.000000pt" height="512.000000pt" viewBox="0 0 512.000000 512.000000"
 preserveAspectRatio="xMidYMid meet">
<metadata>
Created by potrace 1.11, written by Peter Selinger 2001-2013
</metadata>
<g transform="translate(0.000000,512.000000) scale(0.100000,-0.100000)"
fill="#000000" stroke="none">
<path d="M1021 4328 c7 -13 302 -499 656 -1081 l643 -1057 0 -715 0 -715 240
0 240 0 0 713 0 713 655 1074 c360 591 655 1078 655 1082 0 12 -429 9 -470 -2
-20 -5 -50 -24 -67 -42 -34 -36 -850 -1420 -919 -1558 -23 -47 -52 -114 -65
-149 -21 -59 -24 -62 -33 -40 -67 165 -160 333 -525 954 -233 396 -439 741
-458 766 -53 74 -74 79 -339 79 l-225 0 12 -22z"/>
</g>
</svg>
