<?xml version="1.0" standalone="no"?>
<!DOCTYPE svg PUBLIC "-//W3C//DTD SVG 20010904//EN"
 "http://www.w3.org/TR/2001/REC-SVG-20010904/DTD/svg10.dtd">
<svg version="1.0" xmlns="http://www.w3.org/2000/svg"
 width="512.000000pt" height="512.000000pt" viewBox="0 0 512.000000 512.000000"
 preserveAspectRatio="xMidYMid meet">
<metadata>
Created by potrace 1.11, written by Peter Selinger 2001-2013
</metadata>
<g transform="translate(0.000000,512.000000) scale(0.100000,-0.100000)"
fill="#000000" stroke="none">
<path d="M1080 4271 c0 -4 281 -470 625 -1035 l625 -1027 0 -685 0 -684 235 0
235 0 0 686 0 687 619 1016 c341 559 623 1024 626 1034 7 16 -7 17 -201 17
-115 0 -226 -5 -246 -10 -23 -7 -50 -25 -69 -48 -34 -41 -809 -1354 -868
-1472 -21 -41 -48 -102 -61 -135 -13 -33 -26 -63 -29 -67 -4 -4 -24 34 -45 85
-22 50 -70 146 -107 212 -171 301 -791 1344 -818 1377 -19 23 -46 41 -69 48
-44 12 -452 14 -452 1z"/>
</g>
</svg>
